<svg id="visual" viewBox="0 0 900 600" width="900" height="600" xmlns="http://www.w3.org/2000/svg" xmlns:xlink="http://www.w3.org/1999/xlink" version="1.1">
    <rect x="0" y="0" width="900" height="600" fill=""></rect>
        <path d="M0 402L21.5 403C43 404 86 406 128.8 402C171.7 398 214.3 388 257.2 388.7C300 389.3 343 400.7 385.8 402.3C428.7 404 471.3 396 514.2 389.3C557 382.7 600 377.3 642.8 379C685.7 380.7 728.3 389.3 771.2 388C814 386.7 857 375.3 878.5 369.7L900 364L900 601L878.5 601C857 601 814 601 771.2 601C728.3 601 685.7 601 642.8 601C600 601 557 601 514.2 601C471.3 601 428.7 601 385.8 601C343 601 300 601 257.2 601C214.3 601 171.7 601 128.8 601C86 601 43 601 21.5 601L0 601Z" fill="#9932cc"></path>
        <path d="M0 422L21.5 429.2C43 436.3 86 450.7 128.8 453.8C171.7 457 214.3 449 257.2 440.8C300 432.7 343 424.3 385.8 419.7C428.7 415 471.3 414 514.2 413C557 412 600 411 642.8 417.7C685.7 424.3 728.3 438.7 771.2 445.5C814 452.3 857 451.7 878.5 451.3L900 451L900 601L878.5 601C857 601 814 601 771.2 601C728.3 601 685.7 601 642.8 601C600 601 557 601 514.2 601C471.3 601 428.7 601 385.8 601C343 601 300 601 257.2 601C214.3 601 171.7 601 128.8 601C86 601 43 601 21.5 601L0 601Z" fill="#7b24bc"></path>
        <path d="M0 442L21.5 447.3C43 452.7 86 463.3 128.8 465.7C171.7 468 214.3 462 257.2 457.8C300 453.7 343 451.3 385.8 458.2C428.7 465 471.3 481 514.2 486.7C557 492.3 600 487.7 642.8 477.7C685.7 467.7 728.3 452.3 771.2 455.3C814 458.3 857 479.7 878.5 490.3L900 501L900 601L878.5 601C857 601 814 601 771.2 601C728.3 601 685.7 601 642.8 601C600 601 557 601 514.2 601C471.3 601 428.7 601 385.8 601C343 601 300 601 257.2 601C214.3 601 171.7 601 128.8 601C86 601 43 601 21.5 601L0 601Z" fill="#5d16ac"></path>
        <path d="M0 534L21.5 526.8C43 519.7 86 505.3 128.8 497.2C171.7 489 214.3 487 257.2 487.7C300 488.3 343 491.7 385.8 495.3C428.7 499 471.3 503 514.2 502.7C557 502.3 600 497.7 642.8 497.2C685.7 496.7 728.3 500.3 771.2 503.7C814 507 857 510 878.5 511.5L900 513L900 601L878.5 601C857 601 814 601 771.2 601C728.3 601 685.7 601 642.8 601C600 601 557 601 514.2 601C471.3 601 428.7 601 385.8 601C343 601 300 601 257.2 601C214.3 601 171.7 601 128.8 601C86 601 43 601 21.5 601L0 601Z" fill="#3b089c"></path>
        <path d="M0 545L21.5 544.3C43 543.7 86 542.3 128.8 545.5C171.7 548.7 214.3 556.3 257.2 558.7C300 561 343 558 385.8 555.5C428.7 553 471.3 551 514.2 549.2C557 547.3 600 545.7 642.8 545.2C685.7 544.7 728.3 545.3 771.2 547.8C814 550.3 857 554.7 878.5 556.8L900 559L900 601L878.5 601C857 601 814 601 771.2 601C728.3 601 685.7 601 642.8 601C600 601 557 601 514.2 601C471.3 601 428.7 601 385.8 601C343 601 300 601 257.2 601C214.3 601 171.7 601 128.8 601C86 601 43 601 21.5 601L0 601Z" fill="#00008b"></path>
</svg>