<svg transform="scale(1,-1)" id="visual" viewBox="0 0 900 300" width="900" height="300" xmlns="http://www.w3.org/2000/svg" xmlns:xlink="http://www.w3.org/1999/xlink" version="1.1">
    <rect  x="0" y="0" width="900" height="300" fill="#000000"></rect>
            <path   d="M0 211L21.5 206.8C43 202.7 86 194.3 128.8 193C171.7 191.7 214.3 197.3 257.2 201.3C300 205.3 343 207.7 385.8 202.8C428.7 198 471.3 186 514.2 186.5C557 187 600 200 642.8 202.2C685.7 204.3 728.3 195.7 771.2 197.2C814 198.7 857 210.3 878.5 216.2L900 222L900 301L878.5 301C857 301 814 301 771.2 301C728.3 301 685.7 301 642.8 301C600 301 557 301 514.2 301C471.3 301 428.7 301 385.8 301C343 301 300 301 257.2 301C214.3 301 171.7 301 128.8 301C86 301 43 301 21.5 301L0 301Z" fill="#9932cc"></path>
            <path d="M0 238L21.5 235.2C43 232.3 86 226.7 128.8 222.2C171.7 217.7 214.3 214.3 257.2 215.7C300 217 343 223 385.8 223.3C428.7 223.7 471.3 218.3 514.2 213.2C557 208 600 203 642.8 205.2C685.7 207.3 728.3 216.7 771.2 217.3C814 218 857 210 878.5 206L900 202L900 301L878.5 301C857 301 814 301 771.2 301C728.3 301 685.7 301 642.8 301C600 301 557 301 514.2 301C471.3 301 428.7 301 385.8 301C343 301 300 301 257.2 301C214.3 301 171.7 301 128.8 301C86 301 43 301 21.5 301L0 301Z" fill="#7b24bc"></path>
            <path d="M0 254L21.5 248.5C43 243 86 232 128.8 227C171.7 222 214.3 223 257.2 226C300 229 343 234 385.8 235C428.7 236 471.3 233 514.2 231.3C557 229.7 600 229.3 642.8 228.7C685.7 228 728.3 227 771.2 229C814 231 857 236 878.5 238.5L900 241L900 301L878.5 301C857 301 814 301 771.2 301C728.3 301 685.7 301 642.8 301C600 301 557 301 514.2 301C471.3 301 428.7 301 385.8 301C343 301 300 301 257.2 301C214.3 301 171.7 301 128.8 301C86 301 43 301 21.5 301L0 301Z" fill="#5d16ac"></path>
            <path d="M0 264L21.5 262.5C43 261 86 258 128.8 256.2C171.7 254.3 214.3 253.7 257.2 256.2C300 258.7 343 264.3 385.8 262.3C428.7 260.3 471.3 250.7 514.2 246.7C557 242.7 600 244.3 642.8 248C685.7 251.7 728.3 257.3 771.2 257.8C814 258.3 857 253.7 878.5 251.3L900 249L900 301L878.5 301C857 301 814 301 771.2 301C728.3 301 685.7 301 642.8 301C600 301 557 301 514.2 301C471.3 301 428.7 301 385.8 301C343 301 300 301 257.2 301C214.3 301 171.7 301 128.8 301C86 301 43 301 21.5 301L0 301Z" fill="#3b089c"></path>
            <path d="M0 280L21.5 278.8C43 277.7 86 275.3 128.8 274.2C171.7 273 214.3 273 257.2 273.7C300 274.3 343 275.7 385.8 277.5C428.7 279.3 471.3 281.7 514.2 280.7C557 279.7 600 275.3 642.8 272.5C685.7 269.7 728.3 268.3 771.2 268.3C814 268.3 857 269.7 878.5 270.3L900 271L900 301L878.5 301C857 301 814 301 771.2 301C728.3 301 685.7 301 642.8 301C600 301 557 301 514.2 301C471.3 301 428.7 301 385.8 301C343 301 300 301 257.2 301C214.3 301 171.7 301 128.8 301C86 301 43 301 21.5 301L0 301Z" fill="#00008b"></path>
</svg>